<?xml version="1.0" encoding="UTF-8" standalone="no"?>
<svg
   viewBox="0 0 118.78711 141.80467"
   role="img"
   aria-label="FUTRIX logo"
   class="futrix-logo"
   version="1.1"
   id="svg7"
   sodipodi:docname="favicon.svg"
   width="118.78711"
   height="141.80467"
   inkscape:version="1.4.2 (f4327f4, 2025-05-13)"
   xmlns:inkscape="http://www.inkscape.org/namespaces/inkscape"
   xmlns:sodipodi="http://sodipodi.sourceforge.net/DTD/sodipodi-0.dtd"
   xmlns="http://www.w3.org/2000/svg"
   xmlns:svg="http://www.w3.org/2000/svg">
  <defs
     id="defs7" />
  <sodipodi:namedview
     id="namedview7"
     pagecolor="#ffffff"
     bordercolor="#000000"
     borderopacity="0.25"
     inkscape:showpageshadow="2"
     inkscape:pageopacity="0.0"
     inkscape:pagecheckerboard="0"
     inkscape:deskcolor="#d1d1d1"
     inkscape:zoom="1.3898516"
     inkscape:cx="254.3437"
     inkscape:cy="35.255563"
     inkscape:window-width="1920"
     inkscape:window-height="991"
     inkscape:window-x="-9"
     inkscape:window-y="-9"
     inkscape:window-maximized="1"
     inkscape:current-layer="svg7" />
  <style
     id="style1">
    /* 参数（可在 HTML/CSS 中覆盖） */
    .futrix-logo{
      height: var(--logo-height, 48px);
      width: auto;
      display: block;
    }
    .futrix-logo .icon{ fill: var(--icon-color, #e60012); }
    .futrix-logo .text{ fill: var(--text-color, #e60012); }
  </style>
  <!-- 图标 -->
  <g
     class="icon"
     id="Main-Geo"
     transform="translate(0,2.251386e-5)">
    <path
       d="M 58.994141,0 C 57.941837,-0.007214 54.02619,1.720163 50.292969,3.837891 46.55975,5.955611 34.36326,12.846467 23.189453,19.152344 12.015644,25.458212 2.225551,31.282197 1.435547,32.09375 0.0639234,33.502796 0,35.224545 0,70.302734 c 0,20.203762 0.2058224,37.246516 0.4570312,37.873046 0.2512089,0.62652 7.8262448,5.33123 16.8339848,10.45313 33.604362,19.1078 39.103447,22.21109 40.210937,22.6914 1.71734,0.74479 2.143895,0.69182 4.765625,-0.58984 5.641336,-2.75783 53.398552,-30.12449 54.888672,-31.45313 1.63041,-1.45332 1.63086,-1.48679 1.63086,-38.744137 V 33.244141 l -1.70313,-1.513672 c -0.9363,-0.832452 -7.14851,-4.51721 -13.80664,-8.189453 C 96.619224,19.868784 86.064254,13.982626 79.822266,10.460938 63.048875,0.997513 61.092111,0.014392 58.994141,0 Z m 0.552734,21.710938 c 1.591708,0 5.415965,1.916856 16.113281,8.076171 3.120994,1.797009 9.677138,5.472116 14.56836,8.167969 4.891225,2.695862 9.083018,5.196297 9.314453,5.554688 0.957001,1.481966 -4.14323,1.98158 -20.652344,2.02539 l -17.421875,0.04687 -7.845703,4.447266 C 41.289196,57.021413 41.613281,56.728459 41.613281,60.861328 v 3.572266 h 28.396485 c 25.880098,0 28.43888,0.107645 28.882812,1.214844 0.32602,0.813118 -0.108544,1.591492 -1.314453,2.353515 -0.990931,0.626192 -4.370522,2.947162 -7.509766,5.158203 -3.139248,2.21104 -7.360919,5.144247 -9.382812,6.517578 L 77.009766,82.173828 59.5,82.535156 41.992188,82.898438 41.787109,97.199219 C 41.633224,107.92693 41.349779,111.49823 40.652344,111.49023 39.479055,111.47676 20.245328,100.69028 19.488281,99.621094 19.179779,99.185374 19.010888,86.302781 19.111328,70.992188 l 0.181641,-27.837891 9.458984,-5.308594 C 50.013226,25.912818 58.033704,21.710938 59.546875,21.710938 Z"
       id="path1" />
  </g>
  <!-- 文字 -->
</svg>
