<?xml version="1.0" encoding="UTF-8" standalone="no"?>
<svg
   viewBox="0 0 459.47313 141.80467"
   role="img"
   aria-label="FUTRIX logo"
   class="futrix-logo"
   version="1.1"
   id="svg7"
   sodipodi:docname="logo.svg"
   width="459.47314"
   height="141.80467"
   inkscape:version="1.4.2 (f4327f4, 2025-05-13)"
   xmlns:inkscape="http://www.inkscape.org/namespaces/inkscape"
   xmlns:sodipodi="http://sodipodi.sourceforge.net/DTD/sodipodi-0.dtd"
   xmlns="http://www.w3.org/2000/svg"
   xmlns:svg="http://www.w3.org/2000/svg">
  <defs
     id="defs7" />
  <sodipodi:namedview
     id="namedview7"
     pagecolor="#ffffff"
     bordercolor="#000000"
     borderopacity="0.25"
     inkscape:showpageshadow="2"
     inkscape:pageopacity="0.0"
     inkscape:pagecheckerboard="0"
     inkscape:deskcolor="#d1d1d1"
     inkscape:zoom="1.3898516"
     inkscape:cx="254.34371"
     inkscape:cy="35.255563"
     inkscape:window-width="1920"
     inkscape:window-height="991"
     inkscape:window-x="-9"
     inkscape:window-y="-9"
     inkscape:window-maximized="1"
     inkscape:current-layer="svg7" />
  <style
     id="style1">
    /* 参数（可在 HTML/CSS 中覆盖） */
    .futrix-logo{
      height: var(--logo-height, 48px);
      width: auto;
      display: block;
    }
    .futrix-logo .icon{ fill: var(--icon-color, #e60012); }
    .futrix-logo .text{ fill: var(--text-color, #e60012); }
  </style>
  <!-- 图标 -->
  <g
     class="icon"
     id="Main-Geo"
     transform="translate(0,2.251386e-5)">
    <path
       d="M 58.994141,0 C 57.941837,-0.007214 54.02619,1.720163 50.292969,3.837891 46.55975,5.955611 34.36326,12.846467 23.189453,19.152344 12.015644,25.458212 2.225551,31.282197 1.435547,32.09375 0.0639234,33.502796 0,35.224545 0,70.302734 c 0,20.203762 0.2058224,37.246516 0.4570312,37.873046 0.2512089,0.62652 7.8262448,5.33123 16.8339848,10.45313 33.604362,19.1078 39.103447,22.21109 40.210937,22.6914 1.71734,0.74479 2.143895,0.69182 4.765625,-0.58984 5.641336,-2.75783 53.398552,-30.12449 54.888672,-31.45313 1.63041,-1.45332 1.63086,-1.48679 1.63086,-38.744137 V 33.244141 l -1.70313,-1.513672 c -0.9363,-0.832452 -7.14851,-4.51721 -13.80664,-8.189453 C 96.619224,19.868784 86.064254,13.982626 79.822266,10.460938 63.048875,0.997513 61.092111,0.014392 58.994141,0 Z m 0.552734,21.710938 c 1.591708,0 5.415965,1.916856 16.113281,8.076171 3.120994,1.797009 9.677138,5.472116 14.56836,8.167969 4.891225,2.695862 9.083018,5.196297 9.314453,5.554688 0.957001,1.481966 -4.14323,1.98158 -20.652344,2.02539 l -17.421875,0.04687 -7.845703,4.447266 C 41.289196,57.021413 41.613281,56.728459 41.613281,60.861328 v 3.572266 h 28.396485 c 25.880098,0 28.43888,0.107645 28.882812,1.214844 0.32602,0.813118 -0.108544,1.591492 -1.314453,2.353515 -0.990931,0.626192 -4.370522,2.947162 -7.509766,5.158203 -3.139248,2.21104 -7.360919,5.144247 -9.382812,6.517578 L 77.009766,82.173828 59.5,82.535156 41.992188,82.898438 41.787109,97.199219 C 41.633224,107.92693 41.349779,111.49823 40.652344,111.49023 39.479055,111.47676 20.245328,100.69028 19.488281,99.621094 19.179779,99.185374 19.010888,86.302781 19.111328,70.992188 l 0.181641,-27.837891 9.458984,-5.308594 C 50.013226,25.912818 58.033704,21.710938 59.546875,21.710938 Z"
       id="path1" />
  </g>
  <!-- 文字 -->
  <g
     class="text"
     id="Text"
     transform="translate(0,2.251386e-5)">
    <path
       d="m 404.63094,105.63904 c 0.3093,-0.49783 4.67041,-6.77047 9.69137,-13.939211 5.02095,-7.168744 9.23453,-13.418727 9.3635,-13.888859 0.12898,-0.470123 -3.80885,-6.661313 -8.75071,-13.758203 -4.94185,-7.096869 -9.23825,-13.31072 -9.54756,-13.808548 -0.4344,-0.699215 1.12842,-0.905145 6.86911,-0.905145 h 7.43144 l 6.04293,9.377492 c 3.32362,5.157615 6.25362,9.393699 6.51111,9.413503 0.2575,0.01983 3.12486,-4.068857 6.37194,-9.085886 3.24706,-5.017042 6.29783,-9.266612 6.77945,-9.443495 0.48163,-0.176883 3.82027,-0.226648 7.41918,-0.110581 l 6.54349,0.211025 -9.43265,13.396128 c -5.18796,7.367882 -9.43624,13.787123 -9.44064,14.264985 -0.005,0.477861 0.96594,2.270047 2.15627,3.982642 5.93879,8.544343 15.10245,22.130563 15.91558,23.596743 l 0.9184,1.65596 -7.33135,-0.20773 -7.33134,-0.20773 -6.48386,-9.692376 c -5.9475,-8.890584 -6.56888,-9.579452 -7.51151,-8.327321 -0.5652,0.750781 -3.59259,5.193808 -6.72752,9.873399 l -5.69989,8.508348 h -7.15954 c -5.52316,0 -7.03102,-0.20687 -6.5972,-0.90514 z"
       id="path2" />
    <path
       d="M 383.72957,77.941637 V 49.339074 h 6.05285 6.05283 v 28.602563 28.602543 h -6.05283 -6.05285 z"
       id="path3" />
    <path
       d="m 323.95756,49.197728 v 28.673828 28.671874 l 6.24219,0.002 6.24219,0.002 -0.23829,-8.089846 C 335.86628,87.023021 335.87757,86.99265 341.20951,86.99265 h 4.36133 l 6.29883,9.775391 6.29688,9.775389 h 7.15039 c 5.52108,0 7.02381,-0.20557 6.58398,-0.9043 -0.31338,-0.49783 -3.26232,-4.95704 -6.55273,-9.908199 -6.82389,-10.268056 -7.15744,-10.910156 -5.64649,-10.910156 2.09081,0 7.34551,-4.333071 8.98828,-7.412109 1.97006,-3.692449 2.70381,-11.231956 1.50586,-15.46875 -1.35567,-4.794566 -3.88326,-7.679882 -8.81054,-10.052735 l -4.51563,-2.173828 -16.45508,-0.257812 z m 22.98438,11.091797 c 4.50361,0.171622 7.04709,1.025794 8.91601,2.814453 3.97173,3.801207 2.41891,10.636561 -2.90039,12.763672 -1.46657,0.586461 -5.24575,0.988281 -9.30469,0.988281 h -6.83203 l -0.0664,-5.613281 c -0.0366,-3.086541 -0.12206,-6.750609 -0.18946,-8.144531 l -0.12304,-2.535156 5.29687,-0.226563 c 1.98462,-0.08509 3.70192,-0.104082 5.20313,-0.04687 z"
       id="path4" />
    <path
       d="M 284.61435,83.372501 V 60.200803 h -8.70095 -8.70095 v -5.430864 -5.430865 h 23.45473 23.45475 v 5.430865 5.430864 h -8.70095 -8.70095 v 23.171698 23.171679 h -6.05285 -6.05283 z"
       id="path5" />
    <path
       d="M 158.26137,77.929607 V 49.315025 l 19.85277,0.193049 19.85276,0.193058 0.24657,5.249836 0.24656,5.249835 h -13.66818 -13.6682 v 6.517043 6.517037 h 11.72737 11.72737 v 5.430869 5.430864 h -11.72737 -11.72737 v 11.223785 11.223779 h -6.43114 -6.43114 z"
       id="path6" />
    <path
       d="m 224.69369,106.30084 c -6.95987,-1.88301 -13.05428,-7.31279 -15.07772,-13.433454 -0.52228,-1.579824 -1.00516,-10.717346 -1.21927,-23.072051 l -0.3545,-20.456261 h 6.47395 6.47393 l 0.22389,19.370089 c 0.25686,22.222157 0.59077,23.657692 6.13227,26.36336 3.89218,1.90037 10.84303,1.614317 13.96266,-0.574613 4.45907,-3.128773 4.71615,-4.534168 4.71744,-25.788747 l 9.5e-4,-19.370089 h 6.48308 6.48309 l -0.24109,20.818319 c -0.23276,20.09723 -0.3032,20.949792 -2.03392,24.613872 -2.08819,4.420915 -6.40982,8.426625 -11.34554,10.516175 -4.41098,1.86739 -15.51219,2.41142 -20.67945,1.0134 z"
       id="path7" />
  </g>
</svg>
