<?xml version="1.0" encoding="UTF-8" standalone="no"?>
<!-- Created with Inkscape (http://www.inkscape.org/) -->

<svg
   version="1.1"
   id="svg1"
   width="810.72498"
   height="716.02863"
   viewBox="0 0 810.72498 716.02862"
   sodipodi:docname="beetle-top.svg"
   inkscape:version="1.4.2 (f4327f4, 2025-05-13)"
   xmlns:inkscape="http://www.inkscape.org/namespaces/inkscape"
   xmlns:sodipodi="http://sodipodi.sourceforge.net/DTD/sodipodi-0.dtd"
   xmlns="http://www.w3.org/2000/svg"
   xmlns:svg="http://www.w3.org/2000/svg">
  <defs
     id="defs1" />
  <sodipodi:namedview
     id="namedview1"
     pagecolor="#ffffff"
     bordercolor="#000000"
     borderopacity="0.25"
     inkscape:showpageshadow="2"
     inkscape:pageopacity="0.0"
     inkscape:pagecheckerboard="0"
     inkscape:deskcolor="#d1d1d1"
     showgrid="false"
     inkscape:zoom="0.44056067"
     inkscape:cx="298.48329"
     inkscape:cy="354.09425"
     inkscape:window-width="1920"
     inkscape:window-height="991"
     inkscape:window-x="-9"
     inkscape:window-y="-9"
     inkscape:window-maximized="1"
     inkscape:current-layer="svg1" />
  <rect
     style="fill:#000080;fill-opacity:0;stroke:#000000;stroke-width:3.406;stroke-linecap:round;stroke-linejoin:round;stroke-dasharray:none;stroke-opacity:0.997089;paint-order:stroke markers fill"
     id="rect1"
     width="807.31897"
     height="712.62262"
     x="1.7029999"
     y="1.7029999"
     rx="80" />
  <rect
     style="fill:#000080;fill-opacity:0;stroke:#000000;stroke-width:3.07058;stroke-linecap:round;stroke-linejoin:round;stroke-dasharray:none;stroke-opacity:0.997089;paint-order:stroke markers fill"
     id="rect1-7"
     width="703.25348"
     height="664.88019"
     x="55.011047"
     y="21.048517"
     rx="241.02094" />
  <rect
     style="fill:#000080;fill-opacity:0;stroke:#000000;stroke-width:2.45883;stroke-linecap:round;stroke-linejoin:round;stroke-dasharray:none;stroke-opacity:0.997089;paint-order:stroke markers fill"
     id="rect1-7-7"
     width="567.67511"
     height="528.16699"
     x="129.56235"
     y="98.006706"
     rx="194.55516" />
  <path
     style="fill:#7fff2a;fill-opacity:1;stroke:#000000;stroke-width:5.467;stroke-linecap:round;stroke-linejoin:round;stroke-dasharray:none;stroke-opacity:0.997089;paint-order:stroke markers fill"
     d="M 69.360355,710.67995 C 55.518892,708.65769 38.292086,699.73134 27.603901,689.04315 17.330172,678.76941 8.1957134,661.8212 5.7114564,648.42356 4.6822384,642.87298 4.1168754,538.59189 4.1321064,357.11322 4.1578734,50.102958 3.7528564,64.482502 12.881827,46.467344 18.616846,35.149829 32.940665,20.403371 43.765101,14.672826 64.238188,3.8342076 35.581621,4.6300939 405.3623,4.6300939 c 301.84317,0 335.72533,0.2525121 343.58329,2.560609 20.42861,6.0004391 36.01544,18.0964261 47.04762,36.5107771 11.24681,18.772626 10.623,0.349707 10.623,313.72858 0,181.1634 -0.57448,285.44634 -1.60307,290.9935 -5.80114,31.28561 -33.45574,57.77133 -65.09557,62.34415 -13.83333,1.99929 -656.848256,1.91514 -670.557215,-0.0878 z M 565.06135,683.75133 c 51.39302,-11.54354 88.39505,-31.50875 123.68973,-66.73939 34.82124,-34.75802 55.28701,-71.96444 66.82621,-121.48888 3.39581,-14.57435 3.51288,-18.45882 4.07096,-135.09422 0.55068,-115.08758 0.43782,-120.89381 -2.71037,-139.42981 C 739.97201,121.10714 664.70617,44.043075 563.45634,22.894915 549.94875,20.073572 539.79186,19.877743 406.96731,19.877743 c -131.09318,0 -143.15303,0.225484 -156.4308,2.924804 -33.72073,6.855299 -62.30471,18.661509 -89.90503,37.134003 -46.19604,30.918335 -77.981631,72.8007 -95.53361,125.8801 -11.701924,35.38809 -11.7767,36.32794 -12.44624,156.43162 -0.603902,108.32931 0.05149,127.25397 5.298018,152.98243 5.670365,27.80692 19.77836,61.67435 35.323694,84.79751 41.060178,61.07561 105.026088,99.10477 180.477668,107.29801 3.08966,0.33551 66.28715,0.47956 140.43887,0.3201 133.38204,-0.28681 134.99267,-0.32838 150.87147,-3.89499 z"
     id="path5" />
  <path
     style="fill:#5aa02c;fill-opacity:1;stroke:#000000;stroke-width:8.77462;stroke-linecap:round;stroke-linejoin:round;stroke-dasharray:none;stroke-opacity:0.997089;paint-order:stroke markers fill"
     d="M 272.9485,682.53088 C 213.12097,674.88703 167.84373,653.22548 127.62194,613.00367 99.433382,584.81512 82.193389,557.05403 69.878077,520.02033 58.104281,484.61504 58.146561,485.14281 57.456109,364.95611 56.795579,249.9778 57.502386,233.56441 64.320103,205.56119 86.196122,115.70724 158.03264,47.079431 250.47828,27.718104 264.00105,24.885966 273.99342,24.69279 406.96731,24.69279 H 549.0112 l 16.66086,3.730352 c 47.68933,10.677597 86.16467,31.639773 119.78784,65.262941 34.18066,34.180647 55.95897,74.631997 66.1167,122.806077 2.62243,12.43724 2.8766,24.56213 2.8766,137.22884 0,137.64266 0.36442,132.29037 -11.41866,167.70536 -23.23311,69.82901 -80.43557,126.62654 -151.03812,149.96894 -7.25467,2.39852 -19.89417,5.89236 -28.08777,7.76412 -14.48652,3.30928 -18.63855,3.4112 -150.52128,3.6949 -74.5931,0.16046 -137.79059,0.0149 -140.43887,-0.32344 z m 265.01157,-57.63919 c 82.17722,-14.33051 146.4807,-80.54529 158.90812,-163.63133 3.60004,-24.06871 2.34718,-193.93631 -1.54868,-209.97823 -9.7522,-40.15643 -26.10725,-69.76521 -53.87376,-97.53173 -25.70929,-25.70928 -54.15856,-42.1236 -89.66263,-51.73246 L 532.96104,96.92391 H 413.38737 293.81371 l -18.82209,5.09403 c -35.50407,9.60886 -63.95333,26.02318 -89.66262,51.73246 -25.72623,25.72623 -42.15531,54.21186 -51.7129,89.66262 l -5.07447,18.82209 -0.0223,97.90595 c -0.0204,89.63363 0.23056,99.05866 2.97006,111.54859 17.2899,78.82808 78.77649,139.15152 156.06004,153.10785 19.53848,3.52837 230.26301,3.60763 250.41061,0.0942 z"
     id="path6" />
  <path
     style="fill:#112b00;fill-opacity:1;stroke:#000000;stroke-width:12.4092;stroke-linecap:round;stroke-linejoin:round;stroke-dasharray:none;stroke-opacity:0.997089;paint-order:stroke markers fill"
     d="m 289.88968,619.02095 c -70.56483,-10.65638 -132.41064,-68.89909 -151.2089,-142.39959 -3.96756,-15.51301 -4.35589,-25.85281 -4.35589,-115.98078 0,-89.96236 0.38624,-100.28879 4.2526,-113.69613 10.60141,-36.76234 23.80208,-59.98516 48.84781,-85.93374 26.14031,-27.08262 51.89297,-42.42032 89.9991,-53.60141 l 19.19368,-5.63181 116.98675,-0.0476 116.98672,-0.0476 22.60813,7.06313 c 38.84355,12.13534 61.51672,26.13701 88.75091,54.80754 19.86648,20.91423 32.30588,41.51959 42.12582,69.77976 l 7.49295,21.56343 v 106.68224 106.68224 l -8.17266,23.16323 c -17.93573,50.83411 -50.32217,88.16257 -95.89973,110.53359 -37.66189,18.48576 -33.02142,17.96672 -166.03797,18.5714 -64.91727,0.29512 -124.12347,-0.38342 -131.56932,-1.50785 z"
     id="path7" />
  <g
     class="icon"
     id="Logo"
     transform="matrix(1.7566551,0,0,1.6111988,306.44959,173.60409)"
     style="fill:#ff0000">
    <path
       d="M 58.994141,0 C 57.941837,-0.007214 54.02619,1.720163 50.292969,3.837891 46.55975,5.955611 34.36326,12.846467 23.189453,19.152344 12.015644,25.458212 2.225551,31.282197 1.435547,32.09375 0.0639234,33.502796 0,35.224545 0,70.302734 c 0,20.203762 0.2058224,37.246516 0.4570312,37.873046 0.2512089,0.62652 7.8262448,5.33123 16.8339848,10.45313 33.604362,19.1078 39.103447,22.21109 40.210937,22.6914 1.71734,0.74479 2.143895,0.69182 4.765625,-0.58984 5.641336,-2.75783 53.398552,-30.12449 54.888672,-31.45313 1.63041,-1.45332 1.63086,-1.48679 1.63086,-38.744137 V 33.244141 l -1.70313,-1.513672 c -0.9363,-0.832452 -7.14851,-4.51721 -13.80664,-8.189453 C 96.619224,19.868784 86.064254,13.982626 79.822266,10.460938 63.048875,0.997513 61.092111,0.014392 58.994141,0 Z m 0.552734,21.710938 c 1.591708,0 5.415965,1.916856 16.113281,8.076171 3.120994,1.797009 9.677138,5.472116 14.56836,8.167969 4.891225,2.695862 9.083018,5.196297 9.314453,5.554688 0.957001,1.481966 -4.14323,1.98158 -20.652344,2.02539 l -17.421875,0.04687 -7.845703,4.447266 C 41.289196,57.021413 41.613281,56.728459 41.613281,60.861328 v 3.572266 h 28.396485 c 25.880098,0 28.43888,0.107645 28.882812,1.214844 0.32602,0.813118 -0.108544,1.591492 -1.314453,2.353515 -0.990931,0.626192 -4.370522,2.947162 -7.509766,5.158203 -3.139248,2.21104 -7.360919,5.144247 -9.382812,6.517578 L 77.009766,82.173828 59.5,82.535156 41.992188,82.898438 41.787109,97.199219 C 41.633224,107.92693 41.349779,111.49823 40.652344,111.49023 39.479055,111.47676 20.245328,100.69028 19.488281,99.621094 19.179779,99.185374 19.010888,86.302781 19.111328,70.992188 l 0.181641,-27.837891 9.458984,-5.308594 C 50.013226,25.912818 58.033704,21.710938 59.546875,21.710938 Z"
       id="path1-8"
       style="fill:#ff0000" />
  </g>
</svg>
