<?xml version="1.0" encoding="UTF-8" standalone="no"?>
<!-- Created with Inkscape (http://www.inkscape.org/) -->

<svg
   version="1.1"
   id="svg1"
   width="810.72498"
   height="716.02863"
   viewBox="0 0 810.72498 716.02862"
   sodipodi:docname="beetle-top.svg"
   inkscape:version="1.4.2 (f4327f4, 2025-05-13)"
   xmlns:inkscape="http://www.inkscape.org/namespaces/inkscape"
   xmlns:sodipodi="http://sodipodi.sourceforge.net/DTD/sodipodi-0.dtd"
   xmlns="http://www.w3.org/2000/svg"
   xmlns:svg="http://www.w3.org/2000/svg">
  <defs
     id="defs1" />
  <sodipodi:namedview
     id="namedview1"
     pagecolor="#ffffff"
     bordercolor="#000000"
     borderopacity="0.25"
     inkscape:showpageshadow="2"
     inkscape:pageopacity="0.0"
     inkscape:pagecheckerboard="0"
     inkscape:deskcolor="#d1d1d1"
     showgrid="false"
     inkscape:zoom="0.22028034"
     inkscape:cx="-192.93597"
     inkscape:cy="712.72816"
     inkscape:window-width="1920"
     inkscape:window-height="991"
     inkscape:window-x="-9"
     inkscape:window-y="-9"
     inkscape:window-maximized="1"
     inkscape:current-layer="svg1" />
  <path
     id="path5"
     style="fill:#7fff2a;fill-opacity:1;stroke:#000000;stroke-width:5.467;stroke-linecap:round;stroke-linejoin:round;stroke-dasharray:none;stroke-opacity:0.997089;paint-order:stroke markers fill"
     d="M 338.87305 4.6230469 C 39.06364 4.5753648 62.922667 4.5299816 43.765625 14.671875 C 32.941189 20.40242 18.615878 35.149282 12.880859 46.466797 C 3.7518888 64.481955 4.1585795 50.103019 4.1328125 357.11328 C 4.1175815 538.59195 4.6817195 642.87325 5.7109375 648.42383 C 8.1951945 661.82147 17.329787 678.76923 27.603516 689.04297 C 38.291701 699.73116 55.519865 708.65743 69.361328 710.67969 C 83.070287 712.68263 726.08464 712.76687 739.91797 710.76758 C 771.5578 706.19476 799.21253 679.70944 805.01367 648.42383 C 806.04226 642.87667 806.61523 538.59309 806.61523 357.42969 C 806.61523 44.050815 807.24095 62.473798 795.99414 43.701172 C 784.96196 25.286821 769.37392 13.191845 748.94531 7.1914062 C 741.74687 5.0770289 712.70937 4.6871835 475.84375 4.6367188 L 449.92969 19.890625 C 542.29268 19.963333 551.58009 20.413783 563.45703 22.894531 C 664.70686 44.042691 739.97163 121.10811 756.9375 221 C 760.08569 239.536 760.19912 245.34211 759.64844 360.42969 C 759.09036 477.06509 758.97393 480.94909 755.57812 495.52344 C 744.03893 545.04788 723.57319 582.2537 688.75195 617.01172 C 653.45727 652.24236 616.45357 672.20841 565.06055 683.75195 C 549.18175 687.31856 547.57149 687.35967 414.18945 687.64648 C 340.03773 687.80594 276.84161 687.66168 273.75195 687.32617 C 198.30037 679.13293 134.33362 641.10295 93.273438 580.02734 C 77.728103 556.90418 63.619584 523.03739 57.949219 495.23047 C 52.702691 469.50201 52.048442 450.57736 52.652344 342.24805 C 53.321884 222.14437 53.395732 221.2045 65.097656 185.81641 C 82.649635 132.73701 114.43482 90.855835 160.63086 59.9375 C 188.23118 41.465006 216.81638 29.658033 250.53711 22.802734 C 262.26932 20.417621 273.05035 19.963926 365.83789 19.890625 L 338.87305 4.6230469 z " />
  <path
     id="path6"
     style="fill:#5aa02c;fill-opacity:1;stroke:#000000;stroke-width:8.77462;stroke-linecap:round;stroke-linejoin:round;stroke-dasharray:none;stroke-opacity:0.997089;paint-order:stroke markers fill"
     d="M 448.44336 24.693359 L 409.66016 47.523438 L 369.35156 24.701172 L 369.34961 24.701172 C 271.88031 24.760832 262.59573 25.180983 250.47852 27.71875 C 158.03288 47.080077 86.196331 115.7066 64.320312 205.56055 C 57.502595 233.56377 56.796501 249.97872 57.457031 364.95703 C 58.147483 485.14373 58.10511 484.61424 69.878906 520.01953 C 82.194218 557.05323 99.432536 584.81536 127.62109 613.00391 C 167.84288 653.22572 213.12169 674.8874 272.94922 682.53125 C 275.5975 682.86959 338.79362 683.01398 413.38672 682.85352 C 545.26945 682.56982 549.42168 682.46944 563.9082 679.16016 C 572.1018 677.2884 584.74142 673.79305 591.99609 671.39453 C 662.59864 648.05213 719.80205 591.25479 743.03516 521.42578 C 754.81824 486.01079 754.45312 491.36336 754.45312 353.7207 C 754.45312 241.05399 754.1986 228.92943 751.57617 216.49219 C 741.41844 168.31811 719.63964 127.86619 685.45898 93.685547 C 651.83581 60.062379 613.36121 39.101425 565.67188 28.423828 L 549.01172 24.693359 L 448.44336 24.693359 z M 293.81445 96.923828 L 413.38672 96.923828 L 532.96094 96.923828 L 551.7832 102.01758 C 587.28727 111.62644 615.73602 128.04072 641.44531 153.75 C 669.21182 181.51652 685.56811 211.12482 695.32031 251.28125 C 699.21617 267.32317 700.46918 437.19106 696.86914 461.25977 C 684.44172 544.34581 620.13816 610.56207 537.96094 624.89258 C 517.81334 628.40601 307.08731 628.32524 287.54883 624.79688 C 210.26528 610.84055 148.78013 550.51753 131.49023 471.68945 C 128.75073 459.19952 128.49913 449.77425 128.51953 360.14062 L 128.54102 262.23438 L 133.61523 243.41211 C 143.17282 207.96135 159.6019 179.47623 185.32812 153.75 C 211.03741 128.04072 239.48812 111.62644 274.99219 102.01758 L 293.81445 96.923828 z " />
  <path
     style="fill:#2d5016;fill-opacity:1;stroke:#000000;stroke-width:12.4092;stroke-linecap:round;stroke-linejoin:round;stroke-dasharray:none;stroke-opacity:0.997089;paint-order:stroke markers fill"
     d="m 289.88968,619.02095 c -70.56483,-10.65638 -132.41064,-68.89909 -151.2089,-142.39959 -3.96756,-15.51301 -4.35589,-25.85281 -4.35589,-115.98078 0,-89.96236 0.38624,-100.28879 4.2526,-113.69613 10.60141,-36.76234 23.80208,-59.98516 48.84781,-85.93374 26.14031,-27.08262 51.89297,-42.42032 89.9991,-53.60141 l 19.19368,-5.63181 116.98675,-0.0476 116.98672,-0.0476 22.60813,7.06313 c 38.84355,12.13534 61.51672,26.13701 88.75091,54.80754 19.86648,20.91423 32.30588,41.51959 42.12582,69.77976 l 7.49295,21.56343 v 106.68224 106.68224 l -8.17266,23.16323 c -17.93573,50.83411 -50.32217,88.16257 -95.89973,110.53359 -37.66189,18.48576 -33.02142,17.96672 -166.03797,18.5714 -64.91727,0.29512 -124.12347,-0.38342 -131.56932,-1.50785 z"
     id="path7" />
  <g
     class="icon"
     id="Logo"
     transform="matrix(1.7566551,0,0,1.6111988,306.44959,173.60409)"
     style="fill:#ff0000">
    <path
       d="M 58.994141,0 C 57.941837,-0.007214 54.02619,1.720163 50.292969,3.837891 46.55975,5.955611 34.36326,12.846467 23.189453,19.152344 12.015644,25.458212 2.225551,31.282197 1.435547,32.09375 0.0639234,33.502796 0,35.224545 0,70.302734 c 0,20.203762 0.2058224,37.246516 0.4570312,37.873046 0.2512089,0.62652 7.8262448,5.33123 16.8339848,10.45313 33.604362,19.1078 39.103447,22.21109 40.210937,22.6914 1.71734,0.74479 2.143895,0.69182 4.765625,-0.58984 5.641336,-2.75783 53.398552,-30.12449 54.888672,-31.45313 1.63041,-1.45332 1.63086,-1.48679 1.63086,-38.744137 V 33.244141 l -1.70313,-1.513672 c -0.9363,-0.832452 -7.14851,-4.51721 -13.80664,-8.189453 C 96.619224,19.868784 86.064254,13.982626 79.822266,10.460938 63.048875,0.997513 61.092111,0.014392 58.994141,0 Z m 0.552734,21.710938 c 1.591708,0 5.415965,1.916856 16.113281,8.076171 3.120994,1.797009 9.677138,5.472116 14.56836,8.167969 4.891225,2.695862 9.083018,5.196297 9.314453,5.554688 0.957001,1.481966 -4.14323,1.98158 -20.652344,2.02539 l -17.421875,0.04687 -7.845703,4.447266 C 41.289196,57.021413 41.613281,56.728459 41.613281,60.861328 v 3.572266 h 28.396485 c 25.880098,0 28.43888,0.107645 28.882812,1.214844 0.32602,0.813118 -0.108544,1.591492 -1.314453,2.353515 -0.990931,0.626192 -4.370522,2.947162 -7.509766,5.158203 -3.139248,2.21104 -7.360919,5.144247 -9.382812,6.517578 L 77.009766,82.173828 59.5,82.535156 41.992188,82.898438 41.787109,97.199219 C 41.633224,107.92693 41.349779,111.49823 40.652344,111.49023 39.479055,111.47676 20.245328,100.69028 19.488281,99.621094 19.179779,99.185374 19.010888,86.302781 19.111328,70.992188 l 0.181641,-27.837891 9.458984,-5.308594 C 50.013226,25.912818 58.033704,21.710938 59.546875,21.710938 Z"
       id="path1-8"
       style="fill:#ff0000" />
  </g>
</svg>
